<?xml version="1.0" encoding="utf-8"?>
<!-- Generator: Adobe Illustrator 26.3.1, SVG Export Plug-In . SVG Version: 6.00 Build 0)  -->
<svg version="1.1" id="Layer_1" xmlns="http://www.w3.org/2000/svg" xmlns:xlink="http://www.w3.org/1999/xlink" x="0px" y="0px"
	 viewBox="0 0 14 7.8" style="enable-background:new 0 0 14 7.8;" xml:space="preserve">
<style type="text/css">
	.st0{fill:#122C18;}
</style>
<g>
	<g>
		<path class="st0" d="M13.8,3.5c0,0.3,0,0.7-0.1,1H9c0.1,0.4,0.3,0.7,0.7,1c0.3,0.2,0.7,0.3,1.2,0.3c0.7,0,1.3-0.2,1.9-0.7l0.8,1.2
			c-0.8,0.7-1.7,1-2.7,1C9.8,7.3,9,7,8.3,6.3c-0.7-0.7-1-1.5-1-2.5s0.3-1.8,1-2.5s1.5-1,2.5-1c0.9,0,1.7,0.3,2.3,0.9
			C13.5,1.8,13.8,2.6,13.8,3.5z M10.6,1.8c-0.4,0-0.7,0.1-1,0.4C9.3,2.4,9.1,2.8,9,3.2h3c0-0.4-0.2-0.7-0.4-1
			C11.3,1.9,11,1.8,10.6,1.8z"/>
	</g>
	<g>
		<g>
			<path class="st0" d="M5.6,2.7L1.4,7.2C1.2,7.4,1,7.4,0.8,7.2L0.2,6.6C0,6.4,0,6.2,0.2,6l4.2-4.5c0.2-0.2,0.4-0.2,0.6,0l0.6,0.6
				C5.8,2.2,5.8,2.5,5.6,2.7z"/>
		</g>
		<g>
			<path class="st0" d="M6.9,0.8v6.1c0,0.2-0.2,0.4-0.4,0.4H5.6c-0.2,0-0.4-0.2-0.4-0.4V0.8c0-0.2,0.2-0.4,0.4-0.4h0.8
				C6.7,0.4,6.9,0.6,6.9,0.8z"/>
		</g>
		<g>
			<path class="st0" d="M6.4,2H0.5C0.3,2,0.1,1.9,0.1,1.6V0.8c0-0.2,0.2-0.4,0.4-0.4h5.9c0.2,0,0.4,0.2,0.4,0.4v0.8
				C6.9,1.9,6.7,2,6.4,2z"/>
		</g>
	</g>
</g>
</svg>
