<svg width="317" height="87" viewBox="0 0 317 87" fill="none" xmlns="http://www.w3.org/2000/svg">
<g filter="url(#filter0_d_6_120)">
<rect x="4.5" y="0.5" width="78" height="78" rx="9.5" stroke="white"/>
<path d="M74.1143 37.7051C74.1143 39.0513 74.1143 40.8462 73.6714 42.1923H52.8572C53.3 43.9872 54.1857 45.3333 55.9572 46.6795C57.2857 47.5769 59.0572 48.0256 61.2714 48.0256C64.3714 48.0256 67.0286 47.1282 69.6857 44.8846L73.2286 50.2692C69.6857 53.4103 65.7 54.7564 61.2714 54.7564C56.4 54.7564 52.8572 53.4103 49.7572 50.2692C46.6572 47.1282 45.3286 43.5385 45.3286 39.0513C45.3286 34.5641 46.6572 30.9744 49.7572 27.8333C52.8572 24.6923 56.4 23.3462 60.8286 23.3462C64.8143 23.3462 68.3572 24.6923 71.0143 27.3846C72.7857 30.0769 74.1143 33.6667 74.1143 37.7051ZM59.9429 30.0769C58.1714 30.0769 56.8429 30.5256 55.5143 31.8718C54.1857 32.7692 53.3 34.5641 52.8572 36.359H66.1429C66.1429 34.5641 65.2572 33.218 64.3714 31.8718C63.0429 30.5256 61.7143 30.0769 59.9429 30.0769Z" fill="white"/>
<path d="M37.8 34.1154L19.2 54.3077C18.3143 55.2051 17.4286 55.2051 16.5429 54.3077L13.8857 51.6154C13 50.718 13 49.8205 13.8857 48.9231L32.4857 28.7308C33.3714 27.8333 34.2572 27.8333 35.1429 28.7308L37.8 31.4231C38.6857 31.8718 38.6857 33.218 37.8 34.1154Z" fill="white"/>
<path d="M43.5572 25.5898V52.9616C43.5572 53.859 42.6714 54.7564 41.7857 54.7564H37.8C36.9143 54.7564 36.0286 53.859 36.0286 52.9616V25.5898C36.0286 24.6923 36.9143 23.7949 37.8 23.7949H41.3429C42.6714 23.7949 43.5572 24.6923 43.5572 25.5898Z" fill="white"/>
<path d="M41.3429 30.9744H15.2143C14.3286 30.9744 13.4429 30.5257 13.4429 29.1795V25.5898C13.4429 24.6923 14.3286 23.7949 15.2143 23.7949H41.3429C42.2286 23.7949 43.1143 24.6923 43.1143 25.5898V29.1795C43.5572 30.5257 42.6714 30.9744 41.3429 30.9744Z" fill="white"/>
<path d="M110.287 26.8286C113.832 26.8286 116.706 27.7954 118.908 29.6753C121.083 31.5552 122.184 34.0527 122.184 37.1143V55H116.84V50.4883C116.168 51.9922 115.014 53.2007 113.402 54.0869C111.764 55 109.911 55.4297 107.816 55.4297C104.97 55.4297 102.714 54.6777 100.995 53.1201C99.2764 51.5894 98.417 49.5752 98.417 47.0776C98.417 44.4189 99.3838 42.3242 101.344 40.7666C103.278 39.2358 105.91 38.457 109.213 38.457H114.987C115.578 38.457 116.034 38.3228 116.356 38.0273C116.679 37.7319 116.84 37.3291 116.84 36.792C116.84 35.0732 116.249 33.7036 115.067 32.6831C113.886 31.6626 112.221 31.1255 110.126 31.1255C108.246 31.1255 106.662 31.6626 105.373 32.6831C104.083 33.7036 103.385 34.939 103.305 36.3623H98.3633C98.5781 33.623 99.7866 31.3672 102.042 29.541C104.271 27.7417 107.011 26.8286 110.287 26.8286ZM108.864 51.2134C111.361 51.2134 113.322 50.4614 114.718 48.9575C116.115 47.4536 116.84 45.4126 116.84 42.8345V42.1899H109.696C107.87 42.1899 106.393 42.6196 105.319 43.479C104.245 44.3384 103.708 45.52 103.708 46.9702C103.708 48.2593 104.164 49.2798 105.131 50.0586C106.071 50.8374 107.306 51.2134 108.864 51.2134ZM143.32 31.9043H139.292C134.834 31.9043 132.605 35.4224 132.605 42.4585V55H127.261V27.2852H132.605V32.6025C133.223 30.7764 134.109 29.4336 135.291 28.5742C136.472 27.7148 138.03 27.2852 139.963 27.2852H143.32V31.9043ZM162.684 31.9043H158.656C154.198 31.9043 151.969 35.4224 151.969 42.4585V55H146.625V27.2852H151.969V32.6025C152.587 30.7764 153.473 29.4336 154.654 28.5742C155.836 27.7148 157.394 27.2852 159.327 27.2852H162.684V31.9043ZM177.51 55.4297C173.347 55.4297 169.936 54.0869 167.251 51.4014C164.565 48.7158 163.222 45.3052 163.222 41.1426C163.222 37.0068 164.565 33.5693 167.251 30.8838C169.936 28.1982 173.347 26.8286 177.51 26.8286C181.645 26.8286 185.029 28.1982 187.715 30.8838C190.4 33.5693 191.743 37.0068 191.743 41.1426C191.743 45.3052 190.4 48.7158 187.742 51.4014C185.056 54.0869 181.645 55.4297 177.51 55.4297ZM177.51 50.7568C180.115 50.7568 182.236 49.8706 183.874 48.0981C185.486 46.3257 186.318 43.9893 186.318 41.1426C186.318 38.2959 185.486 35.9863 183.874 34.2139C182.236 32.4414 180.115 31.5283 177.51 31.5283C174.878 31.5283 172.729 32.4414 171.091 34.2139C169.453 35.9863 168.647 38.2959 168.647 41.1426C168.647 43.9893 169.453 46.3257 171.091 48.0981C172.729 49.8706 174.878 50.7568 177.51 50.7568ZM201.063 55L192.496 27.2852H197.813L203.534 47.9102L209.818 27.2852H214.867L221.097 47.9102L226.764 27.2852H232.135L223.568 55H218.626L212.288 34.3213L206.031 55H201.063ZM254.265 45.9766H259.609C259.099 48.8501 257.675 51.1328 255.366 52.8516C253.056 54.5703 250.183 55.4297 246.799 55.4297C244.006 55.4297 241.562 54.7583 239.414 53.4155C237.265 52.0728 235.654 50.3271 234.553 48.1519C233.425 45.9766 232.888 43.5864 232.888 40.9814C232.888 38.3765 233.398 36.0132 234.418 33.8916C235.439 31.77 236.97 30.0513 239.011 28.7622C241.052 27.4731 243.469 26.8286 246.235 26.8286C248.303 26.8286 250.183 27.2046 251.875 27.9028C253.566 28.6011 254.963 29.5679 256.037 30.7764C257.111 32.0117 257.917 33.4082 258.508 34.9658C259.099 36.5503 259.394 38.2153 259.394 39.9878C259.394 40.7397 259.34 41.438 259.287 42.0825H238.098C238.312 44.7144 239.199 46.8359 240.783 48.4473C242.368 50.0586 244.382 50.8643 246.799 50.8643C248.84 50.8643 250.478 50.4614 251.767 49.6021C253.029 48.7695 253.862 47.561 254.265 45.9766ZM246.235 31.1255C244.033 31.1255 242.26 31.7432 240.917 32.9248C239.548 34.1064 238.662 35.8521 238.259 38.1616H253.996C253.835 36.0132 253.056 34.3213 251.687 33.0322C250.29 31.77 248.491 31.1255 246.235 31.1255ZM285.472 27.2852L275.723 54.0063L271.561 66.2256H266.431L270.191 55.2686L259.905 27.2852H265.384L272.662 48.0713L279.966 27.2852H285.472ZM307.172 45.9766H312.516C312.006 48.8501 310.583 51.1328 308.273 52.8516C305.964 54.5703 303.09 55.4297 299.706 55.4297C296.913 55.4297 294.469 54.7583 292.321 53.4155C290.173 52.0728 288.561 50.3271 287.46 48.1519C286.332 45.9766 285.795 43.5864 285.795 40.9814C285.795 38.3765 286.305 36.0132 287.326 33.8916C288.346 31.77 289.877 30.0513 291.918 28.7622C293.959 27.4731 296.376 26.8286 299.142 26.8286C301.21 26.8286 303.09 27.2046 304.782 27.9028C306.474 28.6011 307.87 29.5679 308.945 30.7764C310.019 32.0117 310.824 33.4082 311.415 34.9658C312.006 36.5503 312.301 38.2153 312.301 39.9878C312.301 40.7397 312.248 41.438 312.194 42.0825H291.005C291.22 44.7144 292.106 46.8359 293.691 48.4473C295.275 50.0586 297.289 50.8643 299.706 50.8643C301.747 50.8643 303.385 50.4614 304.675 49.6021C305.937 48.7695 306.769 47.561 307.172 45.9766ZM299.142 31.1255C296.94 31.1255 295.168 31.7432 293.825 32.9248C292.455 34.1064 291.569 35.8521 291.166 38.1616H306.904C306.742 36.0132 305.964 34.3213 304.594 33.0322C303.197 31.77 301.398 31.1255 299.142 31.1255Z" fill="white"/>
</g>
<defs>
<filter id="filter0_d_6_120" x="0" y="0" width="316.516" height="87" filterUnits="userSpaceOnUse" color-interpolation-filters="sRGB">
<feFlood flood-opacity="0" result="BackgroundImageFix"/>
<feColorMatrix in="SourceAlpha" type="matrix" values="0 0 0 0 0 0 0 0 0 0 0 0 0 0 0 0 0 0 127 0" result="hardAlpha"/>
<feOffset dy="4"/>
<feGaussianBlur stdDeviation="2"/>
<feComposite in2="hardAlpha" operator="out"/>
<feColorMatrix type="matrix" values="0 0 0 0 0 0 0 0 0 0 0 0 0 0 0 0 0 0 0.25 0"/>
<feBlend mode="normal" in2="BackgroundImageFix" result="effect1_dropShadow_6_120"/>
<feBlend mode="normal" in="SourceGraphic" in2="effect1_dropShadow_6_120" result="shape"/>
</filter>
</defs>
</svg>
