<?xml version="1.0" encoding="utf-8"?>
<!-- Generator: Adobe Illustrator 26.3.1, SVG Export Plug-In . SVG Version: 6.00 Build 0)  -->
<svg version="1.1" id="Layer_1" xmlns="http://www.w3.org/2000/svg" xmlns:xlink="http://www.w3.org/1999/xlink" x="0px" y="0px"
	 viewBox="0 0 100 125" style="enable-background:new 0 0 100 125;" xml:space="preserve">
<style type="text/css">
	.st0{fill:url(#SVGID_1_);}
	.st1{fill:#00D924;}
	.st2{fill:url(#SVGID_00000106861360255655928570000013886142053143384743_);}
</style>
<g id="Layer_2_1_">
</g>
<linearGradient id="SVGID_1_" gradientUnits="userSpaceOnUse" x1="8.3721" y1="43.7277" x2="8.3721" y2="43.7277">
	<stop  offset="0.7" style="stop-color:#FFB000;stop-opacity:0.7"/>
	<stop  offset="1" style="stop-color:#FFC200"/>
</linearGradient>
<path class="st0" d="M8.4,43.7"/>
<path class="st1" d="M71.2,30.4c0,2.8-0.5,5.5-1.5,8c-2.5,6.3-7.9,11.2-14.5,13c-1.8,0.5-3.7,0.8-5.7,0.8s-3.9-0.3-5.7-0.8
	c-6.6-1.8-12-6.7-14.5-13c-1-2.5-1.5-5.2-1.5-8c0-12,9.8-21.8,21.8-21.8S71.2,18.4,71.2,30.4z"/>
<linearGradient id="SVGID_00000080896804549897997310000009127152522177504696_" gradientUnits="userSpaceOnUse" x1="-194.5898" y1="124.9001" x2="-116.5019" y2="124.9001" gradientTransform="matrix(-1 0 0 -1 -106.0348 177.1455)">
	<stop  offset="0.7" style="stop-color:#FFB000;stop-opacity:0.7"/>
	<stop  offset="1" style="stop-color:#FFC200"/>
</linearGradient>
<polygon style="fill:url(#SVGID_00000080896804549897997310000009127152522177504696_);" points="49.5,86.1 88.6,18.4 10.5,18.4 "/>
<path class="st1" d="M-53.5-24c0,2.8-0.5,5.5-1.5,8c-2.5,6.3-7.9,11.2-14.5,13c-1.8,0.5-3.7,0.8-5.7,0.8s-3.9-0.3-5.7-0.8
	c-6.6-1.8-12-6.7-14.5-13c-1-2.5-1.5-5.2-1.5-8c0-12,9.8-21.8,21.8-21.8S-53.5-36-53.5-24z"/>
</svg>
