<svg xmlns="http://www.w3.org/2000/svg" xmlns:xlink="http://www.w3.org/1999/xlink" xmlns:inkscape="http://www.inkscape.org/namespaces/inkscape" version="1.1" width="238.12812" height="79" viewBox="0 0 238.12812 79">
<defs>
<clipPath id="clip_0">
<path transform="matrix(1,0,0,-1,0,79)" d="M0 69C0 74.52285 4.477153 79 10 79H69C74.52285 79 79 74.52285 79 69V10C79 4.47715 74.52285 0 69 0H9.999999C4.477151 0 0 4.47715 0 10V69Z" clip-rule="evenodd"/>
</clipPath>
</defs>
<g clip-path="url(#clip_0)">
<path transform="matrix(1,0,0,-1,0,79)" d="M10 78H69V80H10V78ZM78 69V10H80V69H78ZM69 1H9.999999V-1H69V1ZM1 10V69H-1V10H1ZM9.999999 1C5.029437 1 1 5.029434 1 10H-1C-1 3.924866 3.924867-1 9.999999-1V1ZM78 10C78 5.029434 73.970569 1 69 1V-1C75.075138-1 80 3.924866 80 10H78ZM69 78C73.970569 78 78 73.970569 78 69H80C80 75.075138 75.075138 80 69 80V78ZM10 80C3.924868 80-1 75.075138-1 69H1C1 73.970569 5.029438 78 10 78V80Z" fill="#ffffff"/>
</g>
<path transform="matrix(1,0,0,-1,41.328569,54.75641)" d="M28.785717 17.051274C28.785717 15.70512 28.785716 13.91025 28.342858 12.564096H7.528571C7.971428 10.769224 8.857141 9.423071 10.628571 8.076916 11.957142 7.17948 13.72857 6.730762 15.942856 6.730762 19.042857 6.730762 21.7 7.628199 24.357144 9.871788L27.900004 4.487171C24.357146 1.346148 20.371428-.000008 15.942856-.000008 11.071426-.000008 7.528572 1.346148 4.428572 4.487171 1.328572 7.628197 0 11.217941 0 15.70512 0 20.192299 1.328572 23.782044 4.428572 26.923069 7.528572 30.064095 11.071429 31.410248 15.500001 31.410248 19.485716 31.410248 23.028574 30.064095 25.685717 27.371787 27.457146 24.679478 28.785717 21.089735 28.785717 17.051274ZM14.614287 24.679478C12.842858 24.679478 11.514287 24.23076 10.185716 22.884606 8.857144 21.987172 7.971428 20.192299 7.528571 18.397427H20.814286C20.814286 20.192299 19.928574 21.538453 19.04286 22.884606 17.714287 24.23076 16.385716 24.679478 14.614287 24.679478Z" fill="#ffffff"/>
<path transform="matrix(1,0,0,-1,9.221428,55.429506)" d="M24.578572 21.314105 5.978572 1.121798C5.092857 .224361 4.207143 .224361 3.321429 1.121798L.664286 3.814104C-.221429 4.71154-.221429 5.608976 .664286 6.506413L19.264286 26.698719C20.150002 27.596156 21.035716 27.596156 21.921429 26.698719L24.578572 24.006413C25.464287 23.557694 25.464287 22.21154 24.578572 21.314105Z" fill="#ffffff"/>
<path transform="matrix(1,0,0,-1,32.028566,54.75644)" d="M7.528573 29.166676V1.794882C7.528573 .897448 6.642858 .00001 5.757143 .00001H1.771429C.885715 .00001 0 .897448 0 1.794882V29.166676C0 30.064112 .885715 30.961548 1.771429 30.961548H5.314287C6.642858 30.961548 7.528573 30.064112 7.528573 29.166676Z" fill="#ffffff"/>
<path transform="matrix(1,0,0,-1,9.442856,30.974366)" d="M27.900004-.000013H1.771429C.885714-.000013 0 .448705 0 1.794858V5.384602C0 6.282038 .885714 7.179474 1.771429 7.179474H27.900004C28.785717 7.179474 29.671433 6.282038 29.671433 5.384602V1.794858C30.114289 .448705 29.228575-.000013 27.900004-.000013Z" fill="#ffffff"/>
<path transform="matrix(1,0,0,-1,211.16327,57.40625)" d="M13.507812 0C9.572266 0 6.347656 1.269531 3.808594 3.808594 1.269531 6.347656 0 9.572266 0 13.507812 0 17.417969 1.269531 20.667969 3.808594 23.207032 6.347656 25.746094 9.572266 27.041016 13.507812 27.041016 17.417969 27.041016 20.617188 25.746094 23.15625 23.207032 25.695313 20.667969 26.964844 17.417969 26.964844 13.507812 26.964844 9.572266 25.695313 6.347656 23.18164 3.808594 20.642579 1.269531 17.417969 0 13.507812 0ZM13.507812 4.417969C15.970703 4.417969 17.976563 5.255859 19.52539 6.931641 21.048829 8.607422 21.835938 10.816406 21.835938 13.507812 21.835938 16.199219 21.048829 18.382813 19.52539 20.058594 17.976563 21.734375 15.970703 22.597657 13.507812 22.597657 11.019531 22.597657 8.988281 21.734375 7.439453 20.058594 5.890625 18.382813 5.128906 16.199219 5.128906 13.507812 5.128906 10.816406 5.890625 8.607422 7.439453 6.931641 8.988281 5.255859 11.019531 4.417969 13.507812 4.417969Z" fill="#ffffff"/>
<path transform="matrix(1,0,0,-1,201.97086,57)" d="M0 37.171876H5.611328V30.824219H0V37.171876ZM.304688 0V26.203125H5.357422V0H.304688Z" fill="#ffffff"/>
<path transform="matrix(1,0,0,-1,170.79016,57.40625)" d="M12.568359 0C8.632812 0 5.560547 1.244141 3.326172 3.757812 1.091797 6.246094 0 9.496094 0 13.507812 0 17.49414 1.091797 20.74414 3.326172 23.257813 5.535156 25.771485 8.607422 27.041016 12.517578 27.041016 14.294922 27.041016 15.919922 26.634766 17.417969 25.873047 18.916016 25.085938 20.058594 24.044922 20.845704 22.77539V37.578126H25.873047V.40625H20.845704V4.316406C20.058594 2.996094 18.916016 1.955078 17.417969 1.167969 15.894531 .380859 14.294922 0 12.568359 0ZM13.152344 4.417969C15.589844 4.417969 17.519532 5.230469 18.992188 6.90625 20.464844 8.556641 21.201172 10.765625 21.201172 13.507812 21.201172 16.25 20.464844 18.433594 18.992188 20.109375 17.519532 21.759766 15.589844 22.597657 13.152344 22.597657 10.740234 22.597657 8.810547 21.759766 7.337891 20.083985 5.865234 18.408204 5.128906 16.22461 5.128906 13.507812 5.128906 10.765625 5.865234 8.582031 7.337891 6.90625 8.810547 5.230469 10.740234 4.417969 13.152344 4.417969Z" fill="#ffffff"/>
<path transform="matrix(1,0,0,-1,143.62117,57.40625)" d="M23.232422 26.609375V.40625H18.205079V5.027344C17.49414 3.402344 16.427735 2.158203 14.955078 1.294922 13.482422 .431641 11.755859 0 9.775391 0 6.830078 0 4.443359 .964844 2.666016 2.894531 .888672 4.824219 0 7.337891 0 10.486328V26.609375H5.052734V11.476562C5.052734 9.394531 5.611328 7.693359 6.728516 6.423828 7.845703 5.154297 9.318359 4.519531 11.171875 4.519531 13.203125 4.519531 14.904297 5.255859 16.22461 6.753906 17.544922 8.226562 18.205079 10.130859 18.205079 12.416016V26.609375H23.232422Z" fill="#ffffff"/>
<path transform="matrix(1,0,0,-1,122.46976,57)" d="M5.357422 34.429689H10.384766V26.203125H18.154297V21.835938H10.384766V8.734375C10.384766 7.3125 10.740234 6.246094 11.451172 5.484375 12.162109 4.722656 13.152344 4.367188 14.447266 4.367188H18.154297V0H14.041016C11.349609 0 9.242188 .761719 7.693359 2.285156 6.119141 3.808594 5.357422 5.916016 5.357422 8.582031V21.835938H0V26.203125H5.357422V34.429689Z" fill="#ffffff"/>
<path transform="matrix(1,0,0,-1,93.67578,57.40625)" d="M13.863281 0C9.775391 0 6.5 1.117188 4.011719 3.376953 1.523438 5.636719 .203125 8.658203 0 12.466797H5.230469C5.433594 10.080078 6.271484 8.201172 7.794922 6.830078 9.292969 5.458984 11.324219 4.773438 13.863281 4.773438 16.25 4.773438 18.179688 5.230469 19.626954 6.195312 21.048829 7.160156 21.785157 8.582031 21.785157 10.486328 21.785157 11.400391 21.53125 12.212891 21.074219 12.923828 20.591797 13.609375 19.957032 14.167969 19.169922 14.599609 18.357422 15.03125 17.44336 15.412109 16.427735 15.767578 15.386719 16.097657 14.294922 16.427735 13.152344 16.732422 12.009766 17.03711 10.867188 17.341797 9.75 17.697266 8.607422 18.027344 7.515625 18.458985 6.5 18.992188 5.458984 19.52539 4.544922 20.134766 3.757812 20.845704 2.945312 21.55664 2.310547 22.470704 1.853516 23.58789 1.371094 24.705079 1.142578 25.97461 1.142578 27.396485 1.142578 30.291016 2.285156 32.652345 4.595703 34.48047 6.880859 36.308595 9.876953 37.222658 13.558594 37.222658 17.265625 37.222658 20.3125 36.20703 22.673829 34.226564 25.009766 32.246095 26.304688 29.580079 26.558594 26.253907H21.302735C21.09961 28.132813 20.3125 29.63086 18.941407 30.748047 17.570313 31.865235 15.767578 32.44922 13.558594 32.44922 11.375 32.44922 9.673828 31.992188 8.429688 31.078125 7.160156 30.164063 6.550781 28.919922 6.550781 27.396485 6.550781 26.457032 6.779297 25.644532 7.261719 24.958985 7.71875 24.248047 8.353516 23.689454 9.166016 23.283204 9.953125 22.876954 10.867188 22.496094 11.908203 22.191407 12.949219 21.861329 14.041016 21.55664 15.183594 21.277344 16.326172 20.998047 17.46875 20.69336 18.636719 20.388672 19.779297 20.058594 20.871094 19.626954 21.91211 19.11914 22.953125 18.585938 23.867188 17.976563 24.679688 17.265625 25.466797 16.554688 26.101563 15.615234 26.583985 14.472656 27.041016 13.330078 27.294922 12.009766 27.294922 10.537109 27.294922 7.261719 26.050782 4.697266 23.5625 2.818359 21.074219 .939453 17.824219 0 13.863281 0Z" fill="#ffffff"/>
</svg>
