<svg width="28" height="16" viewBox="0 0 28 16" fill="none" xmlns="http://www.w3.org/2000/svg">
<g clip-path="url(#clip0_2507_22)">
<path d="M28 8.20507C28 7.79482 27.8 7.58969 27.4 7.58969C27 7.58969 26.4 7.58969 26 7.58969C25.8 7.58969 25.6 7.58969 25.4 7.38456C23.8 5.5384 22 3.48712 20.4 1.64097C20.2 1.23071 20 1.23071 19.6 1.23071C18.6 1.23071 17.8 1.23071 16.8 1.23071C16.4 1.23071 16.2 1.43584 16.2 1.8461C16.2 3.28199 16.2 4.71789 16.2 6.15379C16.2 6.35892 16.2 6.76917 15.8 6.76917C15.6 6.9743 15.4 6.76917 15.2 6.56405C14 4.92302 12.6 3.28199 11 1.43584C11 1.23071 10.8 1.23071 10.6 1.23071C9.6 1.23071 8.8 1.23071 7.8 1.23071C7.4 1.23071 7.2 1.43584 7.2 1.8461C7.2 3.48712 7.2 5.33328 7.2 6.9743C7.2 7.38456 7.2 7.58969 6.8 7.58969C6 6.9743 5.2 6.76917 4.2 6.76917C2 6.76917 0 8.61533 0 11.0769C0 13.5384 2 15.3846 4.2 15.3846C6.4 15.3846 8.4 13.5384 8.4 11.0769C8.4 10.0512 8 9.23071 7.6 8.61533C7.8 8.4102 8 8.61533 8 8.82046C9.6 10.4615 11 12.3076 12.6 14.1538C12.8 14.3589 13 14.3589 13.2 14.3589C14 14.3589 14.8 14.3589 15.6 14.3589C16.2 14.3589 16.2 14.1538 16.2 13.7435C16.2 12.1025 16.2 10.6666 16.2 9.02558C16.2 8.82046 16.2 8.61533 16.6 8.4102C16.8 8.4102 17 8.4102 17.2 8.61533C18.8 10.4615 20.2 12.3076 21.8 13.9487C22 14.1538 22.2 14.3589 22.4 14.3589C24 14.3589 25.8 14.3589 27.4 14.3589C27.8 14.3589 28 14.1538 28 13.7435C28 11.8974 28 10.0512 28 8.20507Z" fill="black"/>
</g>
<defs>
<clipPath id="clip0_2507_22">
<rect width="28" height="16" fill="white"/>
</clipPath>
</defs>
</svg>
