<svg width="22" height="36" viewBox="0 0 22 36" fill="none" xmlns="http://www.w3.org/2000/svg">
<path d="M14.1542 9.85417C14.1542 8.6 14.5125 7.70417 14.6917 7.16667H15.7667L17.3792 2.6875H18.8125V0H2.6875V2.6875H4.12083L5.73333 7.16667H6.80833C7.16667 7.70417 7.34583 8.6 7.34583 9.85417C7.34583 12.1833 0 20.9625 0 27.95V31.5333C0 34.0417 4.8375 35.6542 10.75 35.6542C16.6625 35.6542 21.5 34.0417 21.5 31.5333V27.95C21.5 20.9625 14.1542 12.1833 14.1542 9.85417ZM10.75 23.2917C9.79964 23.2917 8.88821 22.9141 8.2162 22.2421C7.5442 21.5701 7.16667 20.6587 7.16667 19.7083C7.16667 18.758 7.5442 17.8465 8.2162 17.1745C8.88821 16.5025 9.79964 16.125 10.75 16.125C11.7004 16.125 12.6118 16.5025 13.2838 17.1745C13.9558 17.8465 14.3333 18.758 14.3333 19.7083C14.3333 20.6587 13.9558 21.5701 13.2838 22.2421C12.6118 22.9141 11.7004 23.2917 10.75 23.2917Z" fill="black"/>
</svg>
